<?xml version="1.0" encoding="utf-8"?><svg xmlns="http://www.w3.org/2000/svg" xmlns:xlink="http://www.w3.org/1999/xlink" width="1366" height="657" preserveAspectRatio="xMidYMid" viewBox="0 0 1366 657" style="z-index:1;margin-right:-2px;display:block;background-repeat-y:initial;background-repeat-x:initial;animation-play-state:paused" ><g transform="" style="animation-play-state:paused" ><linearGradient id="lg-0.4900406725332851" x1="0" x2="1" y1="0" y2="0" style="animation-play-state:paused" ><stop stop-color="#aa2ff2" offset="0" style="animation-play-state:paused" ></stop>

  
<stop stop-color="#6b5fc2" offset="1" style="animation-play-state:paused" ></stop></linearGradient>
<path d="M 0 0 L 0 678.627 Q 170.75 647.948 341.5 610.04 T 683 540.298 T 1024.5 582.333 T 1366 564.65 L 1366 0 Z" fill="url(#lg-0.4900406725332851)" opacity="0.4" style="opacity:0.4;animation-play-state:paused" ></path>
<path d="M 0 0 L 0 592.764 Q 170.75 655.941 341.5 634.274 T 683 627.837 T 1024.5 582.235 T 1366 519.184 L 1366 0 Z" fill="url(#lg-0.4900406725332851)" opacity="0.4" style="opacity:0.4;animation-play-state:paused" ></path>
<path d="M 0 0 L 0 664.47 Q 170.75 626.916 341.5 598.762 T 683 573.41 T 1024.5 563.323 T 1366 506.224 L 1366 0 Z" fill="url(#lg-0.4900406725332851)" opacity="0.4" style="opacity:0.4;animation-play-state:paused" ></path>
<path d="M 0 0 L 0 680.499 Q 170.75 628.86 341.5 611.054 T 683 613.537 T 1024.5 575.349 T 1366 566.688 L 1366 0 Z" fill="url(#lg-0.4900406725332851)" opacity="0.4" style="opacity:0.4;animation-play-state:paused" ></path></g></svg>